#!OML:ASF H:\Pregnant\Project 1\Capture day 1\Session 1\femalepreg.ASF
:FULLY-SPECIFIED
:DEGREES
432
root -0.411788 16.0293 -28.0905 -174.471 72.4053 165.251
lowerback -8.9659 -2.94973 2.70024
upperback -3.99494 -3.99843 4.58759
thorax 1.01456 -1.89743 2.84438
lowerneck -7.52613 -15.1388 -4.89549
upperneck 14.1147 -20.8504 7.13934
head 6.80736 -9.74778 1.14268
rclavicle 2.70347e-014 -1.11319e-014
rhumerus -34.9887 31.6602 -94.649
rradius 64.4535
rwrist -15.5084
rhand -14.255 -13.3035
rfingers 7.12502
rthumb 11.8832 -42.9463
lclavicle 2.70347e-014 -1.11319e-014
lhumerus -53.1409 -8.8759 90.2799
lradius 18.0836
lwrist 29.5372
lhand -18.4788 -3.94269
lfingers 7.12502
lthumb 7.80819 25.8931
rfemur -36.1783 20.8195 24.6746
rtibia 38.4572
rfoot -15.3182 -5.70277
rtoes 13.1225
lfemur -49.3764 -1.44458 -19.1994
ltibia 65.5459
lfoot -2.05204 -0.67012
ltoes -24.7328
433
root -0.290348 16.0371 -28.148 -175.964 73.7179 163.402
lowerback -9.02307 -2.82172 2.35454
upperback -3.93906 -3.81704 4.36193
thorax 1.10688 -1.81117 2.81602
lowerneck -7.48097 -15.4875 -5.1635
upperneck 13.7772 -21.324 7.42821
head 6.78222 -9.98528 1.21822
rclavicle 2.38542e-015 -2.54444e-014
rhumerus -35.061 32.7447 -95.2539
rradius 66.8065
rwrist -15.62
rhand -13.8813 -12.8679
rfingers 7.12502
rthumb 12.2436 -42.4895
lclavicle 2.38542e-015 -2.54444e-014
lhumerus -53.7312 -7.90025 89.1817
lradius 17.5376
lwrist 27.9131
lhand -18.7324 -2.96698
lfingers 7.12502
lthumb 7.56345 26.8778
rfemur -36.0898 21.4954 24.2028
rtibia 38.5711
rfoot -15.6881 -5.19075
rtoes 13.1009
lfemur -49.9798 -1.80658 -19.0224
ltibia 63.7609
lfoot -2.59294 0.419571
ltoes -25.2606
434
root -0.166279 16.0447 -28.2023 -177.856 75.0136 161.142
lowerback -9.09443 -2.72353 1.92063
upperback -3.90096 -3.66565 4.15546
thorax 1.1956 -1.73873 2.85466
lowerneck -7.45599 -15.8555 -5.47603
upperneck 13.503 -21.8121 7.64865
head 6.78105 -10.2338 1.27186
rclavicle -9.54166e-015 4.77083e-015
rhumerus -35.1737 33.8146 -95.8202
rradius 69.114
rwrist -15.6811
rhand -13.4004 -12.4932
rfingers 7.12502
rthumb 12.7073 -42.0866
lclavicle -9.54166e-015 4.77083e-015
lhumerus -54.5545 -7.25633 88.4995
lradius 17.4829
lwrist 26.9477
lhand -19.4204 -1.93511
lfingers 7.12502
lthumb 6.89935 27.9325
rfemur -36.0192 22.1456 23.7001
rtibia 38.6781
rfoot -16.0518 -4.6556
rtoes 13.0081
lfemur -50.4897 -2.17285 -18.8162
ltibia 61.781
lfoot -3.08656 1.56026
ltoes -25.7297
435
root -0.0526562 16.0594 -28.2364 -178.322 76.1864 158.337
lowerback -11.0494 -2.7038 1.33272
upperback -4.43065 -3.60069 4.04997
thorax 1.74303 -1.68345 3.01231
lowerneck -7.41868 -16.2117 -5.84568
upperneck 13.2682 -22.2743 7.82884
head 6.79263 -10.4743 1.32128
rclavicle -7.95139e-015 -6.04305e-014
rhumerus -35.3178 34.8687 -96.3668
rradius 71.3522
rwrist -15.6852
rhand -13.0004 -12.2729
rfingers 7.12502
rthumb 13.0928 -41.8419
lclavicle -7.95139e-015 -6.04305e-014
lhumerus -55.5537 -6.89202 88.1922
lradius 17.7919
lwrist 26.6273
lhand -20.3784 -1.08905
lfingers 7.12502
lthumb 5.97445 28.8067
rfemur -38.4681 23.0135 22.2174
rtibia 38.8475
rfoot -16.0872 -4.25447
rtoes 12.8612
lfemur -53.3009 -2.5605 -18.4288
ltibia 59.7004
lfoot -3.22386 2.64039
ltoes -26.1866
436
root 0.0734719 16.0675 -28.2885 -181.268 77.3339 155.192
lowerback -10.9622 -2.66775 0.891331
upperback -4.38232 -3.51669 3.82161
thorax 1.75512 -1.64666 3.03465
lowerneck -7.36329 -16.5729 -6.25829
upperneck 13.0687 -22.7428 8.01353
head 6.82082 -10.7178 1.37407
rclavicle 2.8625e-014 1.11319e-014
rhumerus -35.4982 35.8358 -96.8997
rradius 73.5416
rwrist -15.6526
rhand -12.7259 -12.1475
rfingers 7.12502
rthumb 13.3574 -41.6994
lclavicle 2.8625e-014 1.11319e-014
lhumerus -56.6465 -6.80216 88.156
lradius 18.3299
lwrist 26.8681
lhand -21.4473 -0.60083
lfingers 7.12502
lthumb 4.94245 29.3215
rfemur -38.1889 23.4581 21.7566
rtibia 38.9225
rfoot -16.4882 -3.5965
rtoes 12.8515
lfemur -53.4269 -3.05516 -18.1232
ltibia 57.3385
lfoot -3.69408 3.81188
ltoes -26.4908
437
root 0.201951 16.0757 -28.3369 -184.62 78.3875 151.614
lowerback -10.9351 -2.64085 0.476027
upperback -4.34529 -3.44632 3.55998
thorax 1.78453 -1.61625 3.00411
lowerneck -7.26855 -16.9269 -6.7304
upperneck 12.893 -23.213 8.29088
head 6.87156 -10.957 1.45922
rclavicle 2.78299e-015 -1.74931e-014
rhumerus -35.6877 36.6841 -97.4324
rradius 75.6636
rwrist -15.6127
rhand -12.4282 -12.0096
rfingers 7.12502
rthumb 13.6444 -41.5424
lclavicle 2.78299e-015 -1.74931e-014
lhumerus -57.7571 -6.90149 88.2338
lradius 18.9809
lwrist 27.5254
lhand -22.4534 -0.543538
lfingers 7.12502
lthumb 3.97098 29.3992
rfemur -37.9263 23.8756 21.3062
rtibia 38.9724
rfoot -16.8722 -2.92586
rtoes 13.0326
lfemur -53.5182 -3.58806 -17.7345
ltibia 54.8268
lfoot -4.15666 4.90578
ltoes -26.5941
438
root 0.333259 16.0836 -28.382 -188.377 79.288 147.633
lowerback -10.9549 -2.63127 0.0975711
upperback -4.30896 -3.401 3.25165
thorax 1.83452 -1.5985 2.89949
lowerneck -7.15055 -17.2822 -7.13912
upperneck 12.7304 -23.6943 8.56338
head 6.91885 -11.1988 1.53349
rclavicle 5.56597e-015 -2.8625e-014
rhumerus -35.8724 37.4001 -97.9641
rradius 77.7131
rwrist -15.5831
rhand -12.1867 -11.966
rfingers 7.12502
rthumb 13.877 -41.483
lclavicle 5.56597e-015 -2.8625e-014
lhumerus -58.8368 -7.13687 88.32
lradius 19.6811
lwrist 28.4786
lhand -23.2781 -0.83304
lfingers 7.12502
lthumb 3.17454 29.1231
rfemur -37.5859 24.2772 20.8674
rtibia 38.8849
rfoot -17.1671 -2.29375
rtoes 13.3661
lfemur -53.5406 -4.21084 -17.2611
ltibia 52.1344
lfoot -4.61966 5.84216
ltoes -26.5101
439
root 0.465553 16.0903 -28.4262 -192.661 80.1485 143.191
lowerback -10.9311 -2.60408 -0.202576
upperback -4.25564 -3.33842 2.89504
thorax 1.86998 -1.57312 2.7045
lowerneck -6.99812 -17.6323 -7.48944
upperneck 12.5898 -24.1836 8.86296
head 6.96794 -11.4397 1.60765
rclavicle -4.35338e-014 -1.59028e-015
rhumerus -36.0471 38.0052 -98.5166
rradius 79.6682
rwrist -15.4512
rhand -12.0451 -12.0805
rfingers 7.12502
rthumb 14.0136 -41.5881
lclavicle -4.35338e-014 -1.59028e-015
lhumerus -59.8502 -7.40537 88.2964
lradius 20.3853
lwrist 29.6058
lhand -23.8456 -1.31075
lfingers 7.12502
lthumb 2.62643 28.6528
rfemur -37.1514 24.6839 20.4906
rtibia 38.7502
rfoot -17.4339 -1.67874
rtoes 13.6909
lfemur -53.455 -4.8504 -16.6939
ltibia 49.3625
lfoot -5.11176 6.6377
ltoes -26.346
440
root 0.600376 16.0955 -28.4683 -197.533 80.9389 138.2
lowerback -10.9103 -2.5876 -0.476043
upperback -4.19496 -3.29113 2.52014
thorax 1.91293 -1.55533 2.47368
lowerneck -6.82045 -17.957 -7.79103
upperneck 12.4795 -24.6489 9.16444
head 7.01813 -11.6663 1.67927
rclavicle 2.10712e-014 -1.27222e-014
rhumerus -36.2267 38.5507 -99.0737
rradius 81.5005
rwrist -14.9985
rhand -11.9627 -12.2581
rfingers 7.12502
rthumb 14.093 -41.7603
lclavicle 2.10712e-014 -1.27222e-014
lhumerus -60.7809 -7.59625 88.1009
lradius 21.0581
lwrist 30.7817
lhand -24.1173 -1.79756
lfingers 7.12502
lthumb 2.36407 28.1691
rfemur -36.6378 25.083 20.1786
rtibia 38.5573
rfoot -17.6613 -1.13899
rtoes 13.6447
lfemur -53.3032 -5.52906 -16.0295
ltibia 46.5493
lfoot -5.59877 7.31534
ltoes -26.1976
441
root 0.737811 16.0986 -28.5083 -202.961 81.6681 132.69
lowerback -10.8936 -2.57908 -0.706401
upperback -4.13142 -3.2568 2.14037
thorax 1.95905 -1.54368 2.21213
lowerneck -6.60946 -18.2458 -8.06156
upperneck 12.3914 -25.0742 9.47228
head 7.06644 -11.8723 1.7553
rclavicle 9.74045e-015 6.36111e-015
rhumerus -36.3799 39.0016 -99.6116
rradius 83.1245
rwrist -13.8993
rhand -11.636 -12.4223
rfingers 7.12502
rthumb 14.4078 -41.9022
lclavicle 9.74045e-015 6.36111e-015
lhumerus -61.6242 -7.68582 87.7206
lradius 21.6803
lwrist 31.9484
lhand -24.1116 -2.17285
lfingers 7.12502
lthumb 2.36957 27.7937
rfemur -36.0419 25.5055 19.9451
rtibia 38.2966
rfoot -17.8455 -0.660471
rtoes 13.3752
lfemur -53.1158 -6.24193 -15.2471
ltibia 43.7519
lfoot -6.07969 7.88398
ltoes -26.1998
442
root 0.877672 16.1003 -28.5464 -209.129 82.3304 126.464
lowerback -10.9116 -2.57344 -0.878178
upperback -4.05531 -3.22986 1.73107
thorax 2.03274 -1.53585 1.88486
lowerneck -6.41035 -18.5068 -8.28297
upperneck 12.3596 -25.4749 9.79002
head 7.13062 -12.0607 1.82733
rclavicle 4.85035e-014 -8.74653e-015
rhumerus -36.4754 39.3202 -100.115
rradius 84.4948
rwrist -11.9128
rhand -11.086 -12.344
rfingers 7.12502
rthumb 14.9377 -41.7853
lclavicle 4.85035e-014 -8.74653e-015
lhumerus -62.36 -7.70491 87.142
lradius 22.2376
lwrist 33.0788
lhand -23.9131 -2.35435
lfingers 7.12502
lthumb 2.56132 27.61
rfemur -35.3855 25.9202 19.7679
rtibia 37.9768
rfoot -17.9998 -0.137278
rtoes 13.2415
lfemur -52.9205 -7.007 -14.3489
ltibia 41.0144
lfoot -6.53517 8.40734
ltoes -26.3681
